<?xml version="1.0" encoding="UTF-8"?>
<svg width="524px" height="91px" viewBox="0 0 524 91" version="1.1" xmlns="http://www.w3.org/2000/svg" xmlns:xlink="http://www.w3.org/1999/xlink">
    <!-- Generator: Sketch 52.6 (67491) - http://www.bohemiancoding.com/sketch -->
    <title>logo</title>
    <desc>Created with Sketch.</desc>
    <g id="Page-1" stroke="none" stroke-width="1" fill="none" fill-rule="evenodd">
        <g id="logo" fill="#FF3008">
            <path d="M3.55110245,0 C0.969297152,0.261635536 -0.666663599,2.93242513 0.263416871,5.3380673 L6.01204983,18.0721673 C6.6846504,19.4049282 8.03860935,20.2407572 9.53444498,20.2407572 C35.5504247,20.2407572 61.5664044,20.2407572 87.5841356,20.2407572 C97.1266562,20.2407572 105.81091,25.6174552 110.095236,34.1337797 C113.654414,41.2084748 113.654414,49.7915252 110.095236,56.8662203 C105.81091,65.3825448 97.1249046,70.7592428 87.5841356,70.7592428 L55.6093353,70.7592428 C53.5144648,70.7592428 51.6017569,69.6231476 50.6086202,67.7741394 C49.2091205,65.1683197 48.1494243,62.3307155 46.9303358,59.6318308 L46.9075655,59.5809085 L46.8918014,59.5264742 C46.306779,57.5914248 47.7623287,55.6212566 49.7801304,55.6212566 L88.1516424,55.6212566 C93.4904093,55.3367938 97.6959144,50.8837218 97.6959144,45.5 C97.6959144,40.1162782 93.5009187,35.6632062 88.1621517,35.3787434 C65.416342,35.3787434 42.6827932,35.3787434 19.9369834,35.3787434 C17.1554998,35.3787434 15.2410404,38.1952763 16.2551959,40.7642212 L37.734625,88.3555496 C38.4650271,89.9710173 39.6315687,91 41.4619531,91 L89.1798104,91 C104.378131,90.474973 118.229499,82.3695392 126.216631,69.4493092 C128.733628,65.3790329 130.595541,60.9312288 131.721796,56.2762234 C133.426068,49.2278674 133.426068,41.7721326 131.721796,34.7237766 C130.595541,30.0687712 128.733628,25.6209671 126.216631,21.5506908 C118.233002,8.63397268 104.38864,0.530294844 89.2271026,0 L3.55110245,0" id="Fill-2"></path>
            <path d="M178,18.961326 L220.175459,18.961326 L220.175459,30.1767956 L190.18578,30.1767956 L190.18578,42.1132597 L216.614679,42.1132597 L216.614679,53.3287293 L190.18578,53.3287293 L190.18578,75.038674 L178,75.038674 L178,18.961326 Z M256.970183,64.6243094 C259.396801,64.6243094 261.638751,64.1703544 263.696101,63.2624309 C265.753451,62.3545074 267.507447,61.0994555 268.958142,59.4972376 C270.408838,57.8950196 271.543,56.039145 272.360665,53.929558 C273.17833,51.819971 273.587156,49.5635479 273.587156,47.160221 L273.587156,47 C273.587156,44.5966731 273.17833,42.3268983 272.360665,40.1906077 C271.543,38.0543171 270.382462,36.1850909 268.879014,34.5828729 C267.375566,32.980655 265.595194,31.7122515 263.537844,30.7776243 C261.480494,29.8429972 259.238544,29.3756906 256.811927,29.3756906 C254.332556,29.3756906 252.077418,29.8296456 250.046445,30.7375691 C248.015471,31.6454926 246.274663,32.9005445 244.823968,34.5027624 C243.373273,36.1049804 242.23911,37.960855 241.421445,40.070442 C240.60378,42.180029 240.194954,44.4364521 240.194954,46.839779 L240.194954,47 C240.194954,49.4033269 240.60378,51.6731017 241.421445,53.8093923 C242.23911,55.9456829 243.399648,57.8149091 244.903096,59.4171271 C246.406544,61.019345 248.173728,62.2877485 250.204702,63.2223757 C252.235675,64.1570028 254.490813,64.6243094 256.970183,64.6243094 Z M256.811927,76 C252.538969,76 248.608963,75.2389579 245.021789,73.7168508 C241.434615,72.1947438 238.335449,70.1385949 235.724197,67.5483425 C233.112946,64.9580902 231.082003,61.9139217 229.631307,58.4157459 C228.180612,54.91757 227.455275,51.1657659 227.455275,47.160221 L227.455275,47 C227.455275,42.9944551 228.1938,39.242651 229.670872,35.7444751 C231.147943,32.2462993 233.192074,29.1754276 235.803326,26.531768 C238.414577,23.8881083 241.526931,21.8052562 245.140482,20.2831492 C248.754032,18.7610421 252.697226,18 256.970183,18 C261.243141,18 265.173147,18.7610421 268.760321,20.2831492 C272.347495,21.8052562 275.446661,23.8614051 278.057913,26.4516575 C280.669164,29.0419098 282.700107,32.0860783 284.150803,35.5842541 C285.601498,39.08243 286.326835,42.8342341 286.326835,46.839779 L286.326835,47 C286.326835,51.0055449 285.58831,54.757349 284.111239,58.2555249 C282.634167,61.7537007 280.590036,64.8245724 277.978784,67.468232 C275.367533,70.1118917 272.255179,72.1947438 268.641628,73.7168508 C265.028078,75.2389579 261.084884,76 256.811927,76 Z M324.229358,64.6243094 C326.655975,64.6243094 328.897925,64.1703544 330.955275,63.2624309 C333.012625,62.3545074 334.766621,61.0994555 336.217317,59.4972376 C337.668012,57.8950196 338.802175,56.039145 339.619839,53.929558 C340.437504,51.819971 340.84633,49.5635479 340.84633,47.160221 L340.84633,47 C340.84633,44.5966731 340.437504,42.3268983 339.619839,40.1906077 C338.802175,38.0543171 337.641636,36.1850909 336.138188,34.5828729 C334.63474,32.980655 332.854368,31.7122515 330.797018,30.7776243 C328.739669,29.8429972 326.497719,29.3756906 324.071101,29.3756906 C321.591731,29.3756906 319.336593,29.8296456 317.305619,30.7375691 C315.274646,31.6454926 313.533838,32.9005445 312.083142,34.5027624 C310.632447,36.1049804 309.498284,37.960855 308.680619,40.070442 C307.862955,42.180029 307.454128,44.4364521 307.454128,46.839779 L307.454128,47 C307.454128,49.4033269 307.862955,51.6731017 308.680619,53.8093923 C309.498284,55.9456829 310.658823,57.8149091 312.162271,59.4171271 C313.665719,61.019345 315.432903,62.2877485 317.463876,63.2223757 C319.49485,64.1570028 321.749988,64.6243094 324.229358,64.6243094 Z M324.071101,76 C319.798144,76 315.868137,75.2389579 312.280963,73.7168508 C308.693789,72.1947438 305.594623,70.1385949 302.983372,67.5483425 C300.37212,64.9580902 298.341177,61.9139217 296.890482,58.4157459 C295.439786,54.91757 294.71445,51.1657659 294.71445,47.160221 L294.71445,47 C294.71445,42.9944551 295.452974,39.242651 296.930046,35.7444751 C298.407117,32.2462993 300.451248,29.1754276 303.0625,26.531768 C305.673752,23.8881083 308.786106,21.8052562 312.399656,20.2831492 C316.013206,18.7610421 319.956401,18 324.229358,18 C328.502315,18 332.432322,18.7610421 336.019495,20.2831492 C339.606669,21.8052562 342.705836,23.8614051 345.317087,26.4516575 C347.928339,29.0419098 349.959282,32.0860783 351.409977,35.5842541 C352.860672,39.08243 353.586009,42.8342341 353.586009,46.839779 L353.586009,47 C353.586009,51.0055449 352.847484,54.757349 351.370413,58.2555249 C349.893341,61.7537007 347.84921,64.8245724 345.237959,67.468232 C342.626707,70.1118917 339.514353,72.1947438 335.900803,73.7168508 C332.287253,75.2389579 328.344058,76 324.071101,76 Z M386.02867,63.9033149 C388.50804,63.9033149 390.776366,63.5027664 392.833716,62.7016575 C394.891065,61.9005485 396.645062,60.7523095 398.095757,59.2569061 C399.546452,57.7615027 400.680615,55.9990893 401.49828,53.9696133 C402.315944,51.9401372 402.724771,49.6703625 402.724771,47.160221 L402.724771,47 C402.724771,44.5432658 402.315944,42.2734911 401.49828,40.1906077 C400.680615,38.1077244 399.546452,36.3186078 398.095757,34.8232044 C396.645062,33.327801 394.891065,32.1662104 392.833716,31.3383978 C390.776366,30.5105852 388.50804,30.0966851 386.02867,30.0966851 L376.612385,30.0966851 L376.612385,63.9033149 L386.02867,63.9033149 Z M364.426606,18.961326 L386.02867,18.961326 C390.354379,18.961326 394.32395,19.6689616 397.9375,21.0842541 C401.55105,22.4995467 404.663404,24.4622342 407.274656,26.9723757 C409.885908,29.4825172 411.903663,32.4332243 413.327982,35.8245856 C414.752301,39.215947 415.46445,42.8876414 415.46445,46.839779 L415.46445,47 C415.46445,50.9521376 414.752301,54.6371836 413.327982,58.0552486 C411.903663,61.4733136 409.885908,64.4373723 407.274656,66.9475138 C404.663404,69.4576553 401.55105,71.4336944 397.9375,72.8756906 C394.32395,74.3176868 390.354379,75.038674 386.02867,75.038674 L364.426606,75.038674 L364.426606,18.961326 Z M441.893349,52.9281768 L420.607798,18.961326 L434.850917,18.961326 L448.065367,41.4723757 L461.517202,18.961326 L475.364679,18.961326 L454.079128,52.6878453 L454.079128,75.038674 L441.893349,75.038674 L441.893349,52.9281768 Z M502.663991,75.839779 C498.443786,75.839779 494.302773,75.1054401 490.240826,73.6367403 C486.178879,72.1680405 482.486255,69.9116174 479.162844,66.8674033 L486.363532,58.1353591 C488.895655,60.2182425 491.493679,61.8738428 494.157683,63.1022099 C496.821688,64.330577 499.736223,64.9447514 502.901376,64.9447514 C505.433499,64.9447514 507.398502,64.4774448 508.796445,63.5428177 C510.194388,62.6081905 510.893349,61.3130838 510.893349,59.6574586 L510.893349,59.4972376 C510.893349,58.6961286 510.748281,57.9884929 510.458142,57.3743094 C510.168003,56.7601258 509.61411,56.1860064 508.796445,55.6519337 C507.97878,55.117861 506.844617,54.5837964 505.393922,54.0497238 C503.943227,53.5156511 502.057351,52.9548832 499.736239,52.3674033 C496.940353,51.6731089 494.408268,50.8987151 492.139908,50.0441989 C489.871548,49.1896827 487.946109,48.134905 486.363532,46.8798343 C484.780955,45.6247635 483.554477,44.0626244 482.68406,42.1933702 C481.813642,40.3241159 481.37844,38.0009347 481.37844,35.2237569 L481.37844,35.0635359 C481.37844,32.4999872 481.853206,30.1901576 482.802752,28.1339779 C483.752298,26.0777982 485.08428,24.3020333 486.798739,22.8066298 C488.513197,21.3112264 490.557328,20.1629874 492.931193,19.3618785 C495.305058,18.5607695 497.91627,18.160221 500.764908,18.160221 C504.826855,18.160221 508.559043,18.7743953 511.961583,20.0027624 C515.364123,21.2311295 518.489665,22.9935428 521.338303,25.2900552 L515.008028,34.5828729 C512.528657,32.8738404 510.102076,31.5253272 507.728211,30.5372928 C505.354346,29.5492584 502.980516,29.0552486 500.606651,29.0552486 C498.232786,29.0552486 496.452414,29.5225552 495.265482,30.4571823 C494.078549,31.3918095 493.485092,32.5534001 493.485092,33.941989 L493.485092,34.1022099 C493.485092,35.0101335 493.656535,35.7978788 493.999427,36.4654696 C494.342318,37.1330604 494.962151,37.7338831 495.858945,38.2679558 C496.755738,38.8020285 497.982217,39.3093899 499.538417,39.7900552 C501.094618,40.2707206 503.059621,40.8314885 505.433486,41.4723757 C508.229372,42.2200774 510.721893,43.0612292 512.911124,43.9958564 C515.100355,44.9304835 516.946667,46.0520192 518.450115,47.3604972 C519.953563,48.6689752 521.087726,50.2044111 521.852638,51.9668508 C522.61755,53.7292906 523,55.8388459 523,58.2955801 L523,58.4558011 C523,61.2329789 522.498858,63.7030279 521.49656,65.8660221 C520.494261,68.0290163 519.096339,69.8448361 517.302752,71.3135359 C515.509165,72.7822357 513.372719,73.9037715 510.893349,74.6781768 C508.413978,75.4525821 505.670887,75.839779 502.663991,75.839779 Z" id="FOODYS" stroke="#FF2D00"></path>
        </g>
    </g>
</svg>