<?xml version="1.0" encoding="UTF-8"?>
<svg width="133px" height="91px" viewBox="0 0 133 91" version="1.1" xmlns="http://www.w3.org/2000/svg" xmlns:xlink="http://www.w3.org/1999/xlink">
    <!-- Generator: Sketch 52.6 (67491) - http://www.bohemiancoding.com/sketch -->
    <title>Fill 2 Copy 3</title>
    <desc>Created with Sketch.</desc>
    <g id="Page-1" stroke="none" stroke-width="1" fill="none" fill-rule="evenodd">
        <g id="logo-copy-2" fill="#FFFFFF">
            <path d="M3.55110245,0 C0.969297152,0.261635536 -0.666663599,2.93242513 0.263416871,5.3380673 L6.01204983,18.0721673 C6.6846504,19.4049282 8.03860935,20.2407572 9.53444498,20.2407572 C35.5504247,20.2407572 61.5664044,20.2407572 87.5841356,20.2407572 C97.1266562,20.2407572 105.81091,25.6174552 110.095236,34.1337797 C113.654414,41.2084748 113.654414,49.7915252 110.095236,56.8662203 C105.81091,65.3825448 97.1249046,70.7592428 87.5841356,70.7592428 L55.6093353,70.7592428 C53.5144648,70.7592428 51.6017569,69.6231476 50.6086202,67.7741394 C49.2091205,65.1683197 48.1494243,62.3307155 46.9303358,59.6318308 L46.9075655,59.5809085 L46.8918014,59.5264742 C46.306779,57.5914248 47.7623287,55.6212566 49.7801304,55.6212566 L88.1516424,55.6212566 C93.4904093,55.3367938 97.6959144,50.8837218 97.6959144,45.5 C97.6959144,40.1162782 93.5009187,35.6632062 88.1621517,35.3787434 C65.416342,35.3787434 42.6827932,35.3787434 19.9369834,35.3787434 C17.1554998,35.3787434 15.2410404,38.1952763 16.2551959,40.7642212 L37.734625,88.3555496 C38.4650271,89.9710173 39.6315687,91 41.4619531,91 L89.1798104,91 C104.378131,90.474973 118.229499,82.3695392 126.216631,69.4493092 C128.733628,65.3790329 130.595541,60.9312288 131.721796,56.2762234 C133.426068,49.2278674 133.426068,41.7721326 131.721796,34.7237766 C130.595541,30.0687712 128.733628,25.6209671 126.216631,21.5506908 C118.233002,8.63397268 104.38864,0.530294844 89.2271026,0 L3.55110245,0" id="Fill-2-Copy-3"></path>
        </g>
    </g>
</svg>